<svg xmlns="http://www.w3.org/2000/svg" version="1.1" xmlns:xlink="http://www.w3.org/1999/xlink" width="512" height="512" x="0" y="0" viewBox="0 0 128 128" style="enable-background:new 0 0 512 512" xml:space="preserve" class=""><g><g data-name="Glyph"><path d="M7.5 121h98.673v2.375a4.5 4.5 0 0 0 7.77 3.092l12.657-13.374a4.5 4.5 0 0 0 0-6.185l-12.657-13.375a4.5 4.5 0 0 0-7.77 3.092V99H7.5a7.508 7.508 0 0 0-7.5 7.5v7a7.508 7.508 0 0 0 7.5 7.5z" fill="#444444" opacity="1" data-original="#000000" class=""></path><path d="m48.86 22.091 13.37 14.14A4.5 4.5 0 0 0 70 33.14v-2.631a34.968 34.968 0 0 1 14.54 62.778A1.509 1.509 0 0 0 85.423 96h16.5a1.5 1.5 0 0 0 1.458-1.146 7.5 7.5 0 0 1 7.319-5.734 7.393 7.393 0 0 1 3.733 1.011 1.509 1.509 0 0 0 2.116-.658A57.242 57.242 0 0 0 122 65 58.284 58.284 0 0 0 70 7.311V4.86a4.5 4.5 0 0 0-7.77-3.091L48.866 15.9a4.471 4.471 0 0 0-.006 6.191z" fill="#444444" opacity="1" data-original="#000000" class=""></path><path d="M15.845 96h26.711a1.508 1.508 0 0 0 .883-2.712A34.968 34.968 0 0 1 51.531 32.3a1.51 1.51 0 0 0 .553-2.432l-5.41-5.722a7.449 7.449 0 0 1 .031-10.322l1.663-1.76A1.508 1.508 0 0 0 46.834 9.6a57.946 57.946 0 0 0-32.266 85.686 1.5 1.5 0 0 0 1.277.714z" fill="#444444" opacity="1" data-original="#000000" class=""></path></g></g></svg>