<svg xmlns="http://www.w3.org/2000/svg" version="1.1" xmlns:xlink="http://www.w3.org/1999/xlink" width="512" height="512" x="0" y="0" viewBox="0 0 512 512" style="enable-background:new 0 0 512 512" xml:space="preserve" class=""><g><path d="M381.211 100 290 8.783V100z" fill="#444444" opacity="1" data-original="#000000" class=""></path><path d="M350.419 364.981c-.368.369-.746.727-1.131 1.074a44.974 44.974 0 0 1-11.951 9.113l-74.247 38.891a45.172 45.172 0 0 1-20.875 5.138c-12.024 0-23.327-4.682-31.826-13.183a45.143 45.143 0 0 1-9.538-14.015H85c-8.284 0-15-6.716-15-15s6.716-15 15-15h113.881a45.547 45.547 0 0 1 3.468-8.686L229.227 302H85c-8.284 0-15-6.716-15-15s6.716-15 15-15h160.412l60-60H85c-8.284 0-15-6.716-15-15s6.716-15 15-15h250c.132 0 .26.016.392.02l52.02-52.02H275c-8.284 0-15-6.716-15-15V0H45C20.187 0 0 20.187 0 45v422c0 24.813 20.187 45 45 45h300c24.813 0 45-20.187 45-45V325.4zM500.303 172.671c15.596-15.596 15.596-40.972 0-56.568-7.555-7.555-17.6-11.716-28.284-11.716s-20.729 4.161-28.284 11.716l-14.142 14.142 56.568 56.568z" fill="#444444" opacity="1" data-original="#000000" class=""></path><path d="M228.922 367.237a14.996 14.996 0 0 0 2.681 17.566 14.994 14.994 0 0 0 17.566 2.681l64.477-33.774-50.951-50.951zM281.047 278.747l127.261-127.26 56.56 56.56-127.26 127.26z" fill="#444444" opacity="1" data-original="#000000" class=""></path></g></svg>