<svg xmlns="http://www.w3.org/2000/svg" version="1.1" xmlns:xlink="http://www.w3.org/1999/xlink" width="512" height="512" x="0" y="0" viewBox="0 0 24 24" style="enable-background:new 0 0 512 512" xml:space="preserve" class=""><g><g fill="#000"><path d="M20 19.261h-9.07c-.45 0-.82-.37-.82-.82s.37-.82.82-.82H20c.45 0 .82.37.82.82 0 .46-.37.82-.82.82zM20 12.968h-9.07c-.45 0-.82-.37-.82-.82s.37-.82.82-.82H20c.45 0 .82.37.82.82s-.37.82-.82.82zM20 6.671h-9.07c-.45 0-.82-.37-.82-.82s.37-.82.82-.82H20c.45 0 .82.37.82.82s-.37.82-.82.82zM4.91 8.032c-.22 0-.43-.09-.58-.24l-.91-.91a.82.82 0 0 1 1.16-1.16l.33.33 2.14-2.14a.82.82 0 0 1 1.16 1.16l-2.72 2.72c-.16.15-.36.24-.58.24zM4.91 14.329c-.21 0-.42-.08-.58-.24l-.91-.91a.82.82 0 0 1 1.16-1.16l.33.33 2.14-2.14a.82.82 0 0 1 1.16 1.16l-2.72 2.72c-.16.16-.37.24-.58.24zM4.91 20.329c-.21 0-.42-.08-.58-.24l-.91-.91a.82.82 0 0 1 1.16-1.16l.33.33 2.14-2.14a.821.821 0 0 1 1.16 1.16l-2.72 2.72c-.16.16-.37.24-.58.24z" fill="#ffffff" opacity="1" data-original="#000000" class=""></path></g></g></svg>