<svg xmlns="http://www.w3.org/2000/svg" version="1.1" xmlns:xlink="http://www.w3.org/1999/xlink" width="512" height="512" x="0" y="0" viewBox="0 0 32 32" style="enable-background:new 0 0 512 512" xml:space="preserve" class=""><g><path d="M22 16V8a1 1 0 0 0-.29-.71l-5-5A1 1 0 0 0 16 2H4a1 1 0 0 0-1 1v22a1 1 0 0 0 1 1h11.7A7 7 0 1 0 22 16zM5 4h10.56L20 8.42v7.87A7 7 0 0 0 15 23a6.63 6.63 0 0 0 .08 1H5zm17 24a5 5 0 0 1-4.72-3.36 4.81 4.81 0 0 1-.18-.64 4.49 4.49 0 0 1-.1-1 5 5 0 1 1 5 5zm3-5a1 1 0 0 1-1 1h-1v1a1 1 0 0 1-2 0v-1h-1a1 1 0 0 1 0-2h1v-1a1 1 0 0 1 2 0v1h1a1 1 0 0 1 1 1zM7 8a1 1 0 0 1 1-1h3a1 1 0 0 1 0 2H8a1 1 0 0 1-1-1zm0 4a1 1 0 0 1 1-1h9a1 1 0 0 1 0 2H8a1 1 0 0 1-1-1zm10 5H8a1 1 0 0 1 0-2h9a1 1 0 0 1 0 2zm-1-9a1 1 0 1 1 1 1 1 1 0 0 1-1-1zm-3 0a1 1 0 1 1 1 1 1 1 0 0 1-1-1z" data-name="06 registry" fill="#ffffff" opacity="1" data-original="#000000" class=""></path></g></svg>