<svg xmlns="http://www.w3.org/2000/svg" version="1.1" xmlns:xlink="http://www.w3.org/1999/xlink" width="512" height="512" x="0" y="0" viewBox="0 0 34 34" style="enable-background:new 0 0 512 512" xml:space="preserve" class=""><g><path d="M7.5 4.992h19c1.93 0 3.5 1.58 3.5 3.5v2.5c0 .83-.67 1.5-1.5 1.5h-23c-.83 0-1.5-.67-1.5-1.5v-2.5c0-1.92 1.57-3.5 3.5-3.5zM20.001 3.998h-6a1.5 1.5 0 1 1 0-3h6a1.5 1.5 0 1 1 0 3zM27.5 13.492h-21v16.01c0 1.93 1.57 3.5 3.5 3.5h14c1.93 0 3.5-1.57 3.5-3.5zM13 28.502c0 .82-.67 1.5-1.5 1.5s-1.5-.68-1.5-1.5v-10.5c0-.83.67-1.5 1.5-1.5s1.5.67 1.5 1.5zm5.5 0c0 .82-.67 1.5-1.5 1.5s-1.5-.68-1.5-1.5v-10.5c0-.83.67-1.5 1.5-1.5s1.5.67 1.5 1.5zm5.33 0c0 .82-.67 1.5-1.5 1.5-.82 0-1.5-.68-1.5-1.5v-10.5c0-.83.68-1.5 1.5-1.5.83 0 1.5.67 1.5 1.5z" fill="#444444" opacity="1" data-original="#000000" class=""></path></g></svg>