<svg xmlns="http://www.w3.org/2000/svg" version="1.1" xmlns:xlink="http://www.w3.org/1999/xlink" width="512" height="512" x="0" y="0" viewBox="0 0 24 24" style="enable-background:new 0 0 512 512" xml:space="preserve"><g><g fill="#000"><path d="M9.15 11.26h-5a1.94 1.94 0 0 1-1.93-1.93v-5A1.94 1.94 0 0 1 4.15 2.4h5a1.94 1.94 0 0 1 1.93 1.93v5a1.94 1.94 0 0 1-1.93 1.93zm-5-7.36a.44.44 0 0 0-.43.43v5a.43.43 0 0 0 .43.43h5a.43.43 0 0 0 .43-.43v-5a.43.43 0 0 0-.43-.43zM19.85 11.26h-5a1.94 1.94 0 0 1-1.93-1.93v-5a1.94 1.94 0 0 1 1.93-1.93h5a1.94 1.94 0 0 1 1.93 1.93v5a1.94 1.94 0 0 1-1.93 1.93zm-5-7.36a.43.43 0 0 0-.43.43v5a.43.43 0 0 0 .43.43h5a.43.43 0 0 0 .43-.43v-5a.43.43 0 0 0-.43-.43zM9.15 21.6h-5a1.94 1.94 0 0 1-1.93-1.93v-5a1.94 1.94 0 0 1 1.93-1.93h5a1.94 1.94 0 0 1 1.93 1.93v5a1.94 1.94 0 0 1-1.93 1.93zm-5-7.36a.43.43 0 0 0-.43.43v5a.44.44 0 0 0 .43.43h5a.43.43 0 0 0 .43-.43v-5a.43.43 0 0 0-.43-.43zM19.85 21.6h-5a1.94 1.94 0 0 1-1.93-1.93v-5a1.94 1.94 0 0 1 1.93-1.93h5a1.94 1.94 0 0 1 1.93 1.93v5a1.94 1.94 0 0 1-1.93 1.93zm-5-7.36a.43.43 0 0 0-.43.43v5a.43.43 0 0 0 .43.43h5a.43.43 0 0 0 .43-.43v-5a.43.43 0 0 0-.43-.43z" fill="#ffffff" opacity="1" data-original="#000000"></path></g></g></svg>